<svg width="105" height="24" viewBox="0 0 105 24" fill="none" xmlns="http://www.w3.org/2000/svg">
<path d="M7.15625 23.3125C6 23.3125 4.94271 23.0208 3.98438 22.4375C3.03646 21.8542 2.28125 21.0729 1.71875 20.0938C1.16667 19.1042 0.890625 18.0052 0.890625 16.7969L0.921875 6.8125C0.921875 5.625 1.19271 4.55208 1.73438 3.59375C2.27604 2.625 3.02083 1.84896 3.96875 1.26562C4.92708 0.671875 5.98958 0.375 7.15625 0.375C8.34375 0.375 9.40104 0.661458 10.3281 1.23438C11.2656 1.80729 12.0104 2.58333 12.5625 3.5625C13.125 4.53125 13.4062 5.61458 13.4062 6.8125V8.28125C13.4062 8.36458 13.3646 8.40625 13.2812 8.40625H9.6875C9.60417 8.40625 9.5625 8.36458 9.5625 8.28125V6.8125C9.5625 6.10417 9.33333 5.49479 8.875 4.98438C8.41667 4.47396 7.84375 4.21875 7.15625 4.21875C6.39583 4.21875 5.8125 4.47917 5.40625 5C5 5.52083 4.79688 6.125 4.79688 6.8125V16.7969C4.79688 17.5781 5.02604 18.2188 5.48438 18.7188C5.94271 19.2083 6.5 19.4531 7.15625 19.4531C7.84375 19.4531 8.41667 19.1823 8.875 18.6406C9.33333 18.0885 9.5625 17.474 9.5625 16.7969V15.3125C9.5625 15.2292 9.60417 15.1875 9.6875 15.1875H13.3125C13.3958 15.1875 13.4375 15.2292 13.4375 15.3125V16.7969C13.4375 17.9948 13.1562 19.0885 12.5938 20.0781C12.0208 21.0573 11.2656 21.8438 10.3281 22.4375C9.39062 23.0208 8.33333 23.3125 7.15625 23.3125ZM22.8075 23.3125C21.6721 23.3125 20.6252 23.0208 19.6669 22.4375C18.719 21.8542 17.9533 21.0781 17.37 20.1094C16.7971 19.1302 16.5106 18.0573 16.5106 16.8906L16.5419 6.75C16.5419 5.5625 16.8283 4.49479 17.4012 3.54688C17.9637 2.58854 18.7242 1.82292 19.6825 1.25C20.6408 0.666667 21.6825 0.375 22.8075 0.375C23.9742 0.375 25.021 0.661458 25.9481 1.23438C26.8856 1.80729 27.6356 2.57812 28.1981 3.54688C28.771 4.50521 29.0575 5.57292 29.0575 6.75L29.0887 16.8906C29.0887 18.0573 28.8075 19.125 28.245 20.0938C27.6721 21.0729 26.9117 21.8542 25.9637 22.4375C25.0158 23.0208 23.9637 23.3125 22.8075 23.3125ZM22.8075 19.4531C23.4533 19.4531 24.0158 19.1927 24.495 18.6719C24.9742 18.1406 25.2137 17.5469 25.2137 16.8906L25.1825 6.75C25.1825 6.04167 24.9585 5.44271 24.5106 4.95312C24.0627 4.46354 23.495 4.21875 22.8075 4.21875C22.1512 4.21875 21.5887 4.45833 21.12 4.9375C20.6512 5.41667 20.4169 6.02083 20.4169 6.75V16.8906C20.4169 17.5885 20.6512 18.1927 21.12 18.7031C21.5887 19.2031 22.1512 19.4531 22.8075 19.4531ZM36.115 23H32.9119C32.7452 23 32.6619 22.9271 32.6619 22.7812L32.6306 0.984375C32.6306 0.817708 32.714 0.734375 32.8806 0.734375H35.7712L41.1775 13.3438L41.0212 0.984375C41.0212 0.817708 41.115 0.734375 41.3025 0.734375H44.4744C44.5994 0.734375 44.6619 0.817708 44.6619 0.984375L44.6931 22.8125C44.6931 22.9375 44.641 23 44.5369 23H41.7244L36.1775 11.2188L36.4119 22.75C36.4119 22.9167 36.3129 23 36.115 23ZM55.4225 23H51.8131C51.7194 23 51.6725 22.9479 51.6725 22.8438V4.59375H47.5163C47.4121 4.59375 47.36 4.54167 47.36 4.4375L47.3913 0.859375C47.3913 0.776042 47.4329 0.734375 47.5163 0.734375H59.6725C59.7871 0.734375 59.8444 0.776042 59.8444 0.859375V4.4375C59.8444 4.54167 59.8027 4.59375 59.7194 4.59375H55.5163L55.5475 22.8438C55.5475 22.9479 55.5058 23 55.4225 23ZM61.4487 22.8438L65.4175 0.859375C65.4383 0.776042 65.4904 0.734375 65.5737 0.734375H70.2144C70.2977 0.734375 70.3498 0.776042 70.3706 0.859375L74.1831 22.8438C74.1935 22.9479 74.1519 23 74.0581 23H70.5112C70.4071 23 70.3498 22.9479 70.3394 22.8438L69.9956 20.5H65.6362L65.2925 22.8438C65.2821 22.9479 65.23 23 65.1362 23H61.5737C61.4904 23 61.4487 22.9479 61.4487 22.8438ZM67.7144 8.09375L66.2769 17.0781H69.355L68.0425 8.09375L67.855 6.90625L67.7144 8.09375ZM83.1937 23.3125C82.0375 23.3125 80.9802 23.0208 80.0219 22.4375C79.074 21.8542 78.3187 21.0729 77.7562 20.0938C77.2042 19.1042 76.9281 18.0052 76.9281 16.7969L76.9594 6.8125C76.9594 5.625 77.2302 4.55208 77.7719 3.59375C78.3135 2.625 79.0583 1.84896 80.0062 1.26562C80.9646 0.671875 82.0271 0.375 83.1937 0.375C84.3812 0.375 85.4385 0.661458 86.3656 1.23438C87.3031 1.80729 88.0479 2.58333 88.6 3.5625C89.1625 4.53125 89.4437 5.61458 89.4437 6.8125V8.28125C89.4437 8.36458 89.4021 8.40625 89.3187 8.40625H85.725C85.6417 8.40625 85.6 8.36458 85.6 8.28125V6.8125C85.6 6.10417 85.3708 5.49479 84.9125 4.98438C84.4542 4.47396 83.8812 4.21875 83.1937 4.21875C82.4333 4.21875 81.85 4.47917 81.4437 5C81.0375 5.52083 80.8344 6.125 80.8344 6.8125V16.7969C80.8344 17.5781 81.0635 18.2188 81.5219 18.7188C81.9802 19.2083 82.5375 19.4531 83.1937 19.4531C83.8812 19.4531 84.4542 19.1823 84.9125 18.6406C85.3708 18.0885 85.6 17.474 85.6 16.7969V15.3125C85.6 15.2292 85.6417 15.1875 85.725 15.1875H89.35C89.4333 15.1875 89.475 15.2292 89.475 15.3125V16.7969C89.475 17.9948 89.1937 19.0885 88.6312 20.0781C88.0583 21.0573 87.3031 21.8438 86.3656 22.4375C85.4281 23.0208 84.3708 23.3125 83.1937 23.3125ZM99.7513 23H96.1419C96.0481 23 96.0013 22.9479 96.0013 22.8438V4.59375H91.845C91.7408 4.59375 91.6888 4.54167 91.6888 4.4375L91.72 0.859375C91.72 0.776042 91.7617 0.734375 91.845 0.734375H104.001C104.116 0.734375 104.173 0.776042 104.173 0.859375V4.4375C104.173 4.54167 104.131 4.59375 104.048 4.59375H99.845L99.8763 22.8438C99.8763 22.9479 99.8346 23 99.7513 23Z" fill="black"/>
</svg>